<svg width="382" height="312" viewBox="0 0 382 312" fill="none" xmlns="http://www.w3.org/2000/svg">
<path d="M109.065 285.436C103.172 285.021 85.8253 295.562 155.877 297.969C225.929 300.376 276.476 297.056 291.665 292.325C306.854 287.511 295.234 284.855 289.258 284.606C283.282 284.357 109.065 285.436 109.065 285.436Z" fill="#1C3177"/>
<path d="M246.679 311.166C257.543 311.166 266.35 309.679 266.35 307.846C266.35 306.012 257.543 304.526 246.679 304.526C235.815 304.526 227.008 306.012 227.008 307.846C227.008 309.679 235.815 311.166 246.679 311.166Z" fill="#1C3177"/>
<path d="M80.8452 293.072C100.785 293.072 116.95 290.991 116.95 288.424C116.95 285.857 100.785 283.776 80.8452 283.776C60.905 283.776 44.7402 285.857 44.7402 288.424C44.7402 290.991 60.905 293.072 80.8452 293.072Z" fill="#1C3177"/>
<path d="M306.024 305.439C316.888 305.439 325.695 303.952 325.695 302.119C325.695 300.285 316.888 298.799 306.024 298.799C295.16 298.799 286.353 300.285 286.353 302.119C286.353 303.952 295.16 305.439 306.024 305.439Z" fill="#1C3177"/>
<path d="M99.9352 303.779C107.636 303.779 113.879 302.738 113.879 301.455C113.879 300.171 107.636 299.131 99.9352 299.131C92.2341 299.131 85.9912 300.171 85.9912 301.455C85.9912 302.738 92.2341 303.779 99.9352 303.779Z" fill="#1C3177"/>
<path d="M323.454 283.776C313.826 284.191 315.486 290.001 337.315 290.416C356.654 290.748 375.661 289.918 379.894 287.345C384.376 284.606 373.337 283.527 365.867 283.859C364.207 283.859 323.454 283.776 323.454 283.776Z" fill="#1C3177"/>
<path d="M1.33088 187.745L11.2909 123.088C12.0379 116.116 18.0139 110.804 24.9859 110.804H26.8119C34.7799 110.804 41.0879 117.527 40.5899 125.495L33.1199 171.145C33.0369 172.971 34.4479 174.548 36.2739 174.548H60.3439C62.9999 174.548 65.0749 172.473 65.1579 169.817L68.8929 124.167C68.9759 116.614 75.1179 110.555 82.6709 110.555H86.5719C94.0419 110.555 97.0299 116.531 97.1959 124.001L101.097 280.788C101.18 284.274 98.3579 287.179 94.7889 287.179H72.3789C68.9759 287.179 66.1539 284.44 66.0709 280.954L64.9919 204.345H16.0219C7.30688 204.262 0.417881 196.543 1.33088 187.745Z" fill="#BECDFC"/>
<path d="M11.2908 187.745L18.4288 123.088C19.1758 116.116 25.1518 110.804 32.1238 110.804C40.0918 110.804 46.3998 117.527 45.9018 125.495L43.0798 171.145C42.9968 172.971 44.4078 174.548 46.2338 174.548H70.3039C72.9599 174.548 75.0349 172.473 75.1179 169.817L75.6989 124.167C75.7819 116.614 81.9238 110.555 89.4768 110.555H93.3779C100.848 110.555 106.99 116.531 107.156 124.001L111.057 280.788C111.14 284.274 108.318 287.179 104.749 287.179H82.3389C78.9359 287.179 76.1138 284.44 76.0308 280.954L74.9518 204.345H25.9818C17.2668 204.262 10.3778 196.543 11.2908 187.745Z" fill="#8EA6F4"/>
<path d="M261.619 187.745L271.579 123.088C272.326 116.116 278.302 110.804 285.274 110.804H287.1C295.068 110.804 301.376 117.527 300.878 125.495L293.408 171.145C293.325 172.971 294.736 174.548 296.562 174.548H320.632C323.288 174.548 325.363 172.473 325.446 169.817L329.181 124.167C329.264 116.614 335.406 110.555 342.959 110.555H346.86C354.33 110.555 357.318 116.531 357.484 124.001L361.385 280.788C361.468 284.274 358.646 287.179 355.077 287.179H332.667C329.264 287.179 326.442 284.44 326.359 280.954L325.28 204.345H276.31C267.595 204.262 260.623 196.543 261.619 187.745Z" fill="#BECDFC"/>
<path d="M271.579 187.745L278.717 123.088C279.464 116.116 285.44 110.804 292.412 110.804C300.38 110.804 306.688 117.527 306.19 125.495L303.368 171.145C303.285 172.971 304.696 174.548 306.522 174.548H330.592C333.248 174.548 335.323 172.473 335.406 169.817L335.987 124.167C336.07 116.614 342.212 110.555 349.765 110.555H353.666C361.136 110.555 367.278 116.531 367.444 124.001L371.345 280.788C371.428 284.274 368.606 287.179 365.037 287.179H342.627C339.224 287.179 336.402 284.44 336.319 280.954L335.24 204.345H286.27C277.555 204.262 270.583 196.543 271.579 187.745Z" fill="#8EA6F4"/>
<path d="M295.151 278.796C294.238 283.195 290.337 286.266 285.855 286.266H227.589C221.115 286.266 216.467 279.875 218.459 273.982C218.625 273.567 218.791 273.069 219.04 272.654C219.123 272.488 219.289 272.239 219.372 272.073C223.273 265.599 231.988 269.915 232.32 270.081C232.32 269.998 232.154 269.832 232.071 269.5C231.324 267.923 229.747 263.358 233.648 261.947C238.462 260.204 243.11 265.267 243.11 265.267C243.11 265.267 245.766 250.161 256.888 250.161C268.01 250.161 264.524 265.516 264.524 265.516C264.524 265.516 270.666 255.888 276.393 258.71C281.954 261.532 278.053 269.832 277.97 270.081C278.302 269.832 287.1 263.856 293.076 270.745C295.4 273.401 295.649 276.306 295.151 278.796Z" fill="#FEC272"/>
<path d="M285.274 286.266H227.672C221.198 286.266 216.55 279.875 218.542 273.982C219.206 275.725 220.368 277.717 222.526 279.46C227.838 283.859 234.146 280.456 234.146 280.456C234.146 280.456 234.561 272.82 239.126 272.82C243.691 272.82 244.853 275.891 244.853 275.891C244.853 275.891 248.837 268.421 254.398 268.255C259.959 268.089 260.54 275.725 260.54 275.725C260.54 275.725 263.445 272.654 266.101 273.401C268.757 274.148 267.844 278.713 267.844 278.713C267.844 278.713 273.986 275.808 280.045 278.298C284.112 280.041 285.025 283.942 285.274 286.266Z" fill="#FF8D76"/>
<path d="M295.151 278.796C294.238 283.195 290.337 286.266 285.855 286.266H285.274C285.274 286.266 294.819 278.381 290.835 272.571C286.851 266.844 275.397 272.737 275.148 272.82C275.231 272.405 278.219 262.86 274.401 261.283C270.5 259.623 263.445 269.915 263.445 269.915C263.445 269.915 263.86 254.062 256.058 253.232C247.675 252.319 244.438 268.836 244.438 268.836C244.438 268.836 238.794 262.611 234.893 263.939C231.075 265.267 232.569 270.247 232.652 270.496L232.071 269.5C231.324 267.923 229.747 263.358 233.648 261.947C238.462 260.204 243.11 265.267 243.11 265.267C243.11 265.267 245.766 250.161 256.888 250.161C268.01 250.161 264.524 265.516 264.524 265.516C264.524 265.516 270.666 255.888 276.393 258.71C281.954 261.532 278.053 269.832 277.97 270.081C278.302 269.832 287.1 263.856 293.076 270.745C295.4 273.401 295.649 276.306 295.151 278.796Z" fill="#FFD29C"/>
<path d="M127.657 286.266C127.657 286.266 125.831 214.637 125.831 173.469C125.831 132.301 147.328 107.816 190.737 107.816C226.51 107.816 241.948 116.78 245.517 175.295C249.086 233.81 250.58 286.266 250.58 286.266H127.657Z" fill="#E1ECFF"/>
<path d="M148.49 286.266C148.49 286.266 146.996 214.637 146.996 173.469C146.996 132.301 165.339 107.816 195.883 107.816C226.427 107.816 246.015 116.78 249.086 175.295C252.157 233.81 253.402 286.266 253.402 286.266H148.49Z" fill="#CDE0FC"/>
<path d="M181.69 216.961C174.967 215.052 170.319 230.241 175.88 233.81C181.441 237.379 189.658 219.202 181.69 216.961Z" fill="#E1ECFF"/>
<path d="M233.482 200.942C229 199.697 225.846 209.823 229.581 212.23C233.316 214.554 238.877 202.436 233.482 200.942Z" fill="#E1ECFF"/>
<path d="M179.449 142.344C174.967 141.099 171.813 151.225 175.548 153.632C179.283 155.956 184.844 143.838 179.449 142.344Z" fill="#E1ECFF"/>
<path d="M202.606 157.035C197.377 155.956 193.808 164.754 198.124 166.829C202.44 168.904 208.831 158.363 202.606 157.035Z" fill="#E1ECFF"/>
<path d="M223.107 134.459C216.799 132.716 212.317 146.992 217.629 150.395C222.941 153.798 230.66 136.617 223.107 134.459Z" fill="#E1ECFF"/>
<path d="M225.099 238.541C216.052 235.968 209.744 256.386 217.214 261.283C224.767 266.014 235.889 241.529 225.099 238.541Z" fill="#E1ECFF"/>
<path d="M180.03 215.965C173.307 214.056 168.659 229.245 174.22 232.814C179.781 236.383 187.998 218.206 180.03 215.965Z" fill="#99ADF9"/>
<path d="M231.822 199.863C227.34 198.618 224.186 208.744 227.921 211.151C231.656 213.558 237.217 201.357 231.822 199.863Z" fill="#99ADF9"/>
<path d="M177.789 141.265C173.307 140.02 170.153 150.146 173.888 152.553C177.623 154.96 183.184 142.759 177.789 141.265Z" fill="#99ADF9"/>
<path d="M200.946 155.956C195.717 154.877 192.148 163.675 196.464 165.75C200.78 167.825 207.171 157.284 200.946 155.956Z" fill="#99ADF9"/>
<path d="M221.447 133.463C215.139 131.72 210.657 145.996 215.969 149.399C221.281 152.802 229 135.538 221.447 133.463Z" fill="#99ADF9"/>
<path d="M223.439 237.462C214.392 234.889 208.084 255.307 215.554 260.204C223.107 265.018 234.229 240.533 223.439 237.462Z" fill="#99ADF9"/>
<path d="M151.312 147.158C144.589 145.166 139.941 161.517 145.502 165.335C151.063 169.153 159.363 149.565 151.312 147.158Z" fill="#CDE0FC"/>
<path d="M138.945 196.128C133.467 194.468 129.649 207.831 134.214 210.985C138.696 214.139 145.502 198.12 138.945 196.128Z" fill="#CDE0FC"/>
<path d="M160.774 118.523C155.296 116.863 151.478 130.226 156.043 133.38C160.608 136.534 167.331 120.515 160.774 118.523Z" fill="#CDE0FC"/>
<path d="M180.86 198.95H173.971C173.556 198.95 173.39 198.618 173.224 198.203L168.576 189.239L168.327 189.073C167.995 189.073 166.75 189.073 166.418 189.073V198.203C166.418 198.618 166.086 198.95 165.671 198.95H159.612C159.197 198.95 158.865 198.618 158.865 198.203V173.801C158.865 171.975 159.446 171.56 161.023 171.311C162.517 171.062 166.252 170.813 168.908 170.813C175.88 170.813 180.611 173.054 180.611 179.86V180.441C180.611 184.425 178.37 186.832 176.046 187.828L181.441 197.954C181.524 198.12 181.524 198.286 181.524 198.369C181.441 198.701 181.192 198.95 180.86 198.95ZM172.975 179.86C172.975 178.117 171.73 177.204 169.24 177.204C168.991 177.204 166.584 177.287 166.335 177.287V183.263C166.501 183.263 168.825 183.263 169.074 183.263C171.979 183.263 172.975 182.267 172.975 180.524V179.86Z" fill="#99ADF9"/>
<path d="M188.33 198.95H187.998C186.172 198.95 184.678 197.456 184.678 195.63C184.678 193.804 186.172 192.31 187.998 192.31H188.33C190.156 192.31 191.65 193.804 191.65 195.63C191.733 197.456 190.239 198.95 188.33 198.95Z" fill="#99ADF9"/>
<path d="M202.938 198.95H196.796C196.381 198.95 196.049 198.618 196.049 198.203V171.892C196.049 171.477 196.381 171.145 196.796 171.145H202.938C203.353 171.145 203.685 171.477 203.685 171.892V198.203C203.685 198.618 203.353 198.95 202.938 198.95Z" fill="#99ADF9"/>
<path d="M211.736 198.95H211.404C209.578 198.95 208.001 197.456 208.001 195.547C208.001 193.721 209.495 192.227 211.321 192.227H211.653C213.479 192.227 215.056 193.721 215.056 195.63C215.056 197.456 213.562 198.95 211.736 198.95Z" fill="#99ADF9"/>
<path d="M229.581 189.903C228.751 189.903 227.921 189.82 226.925 189.82V198.203C226.925 198.618 226.593 198.95 226.178 198.95H220.202C219.787 198.95 219.455 198.701 219.455 198.286V173.801C219.455 171.975 220.036 171.56 221.613 171.311C223.522 170.979 226.842 170.813 229.498 170.813C235.059 170.813 241.118 172.722 241.118 180.192V180.524C241.118 187.828 234.976 189.903 229.581 189.903ZM233.565 180.192C233.565 178.034 232.071 177.204 229.581 177.204C229.332 177.204 227.174 177.204 226.925 177.204V183.595C227.091 183.595 229.332 183.595 229.581 183.595C232.237 183.595 233.565 182.599 233.565 180.524V180.192Z" fill="#99ADF9"/>
<path d="M201.693 275.393C200.282 282.365 193.974 287.262 186.836 287.262H93.8761C83.5011 287.262 76.1141 277.053 79.2681 267.674C79.5171 266.927 79.7661 266.263 80.1811 265.516C80.3471 265.184 80.5131 264.852 80.7621 264.52C86.9871 254.228 100.848 261.117 101.429 261.366C101.429 261.283 101.263 260.951 101.014 260.453C99.8521 257.963 97.2791 250.659 103.587 248.418C111.306 245.596 118.61 253.647 118.61 253.647C118.61 253.647 122.843 229.494 140.688 229.494C158.533 229.494 152.972 253.979 152.972 253.979C152.972 253.979 162.766 238.541 171.896 243.106C180.86 247.588 174.552 260.785 174.386 261.283C174.967 260.868 188.911 251.406 198.539 262.362C202.025 266.678 202.523 271.243 201.693 275.393Z" fill="#FEC272"/>
<path d="M185.923 287.262H93.8761C83.5011 287.262 76.1141 277.053 79.2681 267.674C80.3471 270.496 82.2561 273.65 85.5761 276.472C94.1251 283.527 104.168 277.966 104.168 277.966C104.168 277.966 104.749 265.765 112.136 265.765C119.44 265.765 121.266 270.662 121.266 270.662C121.266 270.662 127.657 258.793 136.538 258.461C145.419 258.129 146.332 270.33 146.332 270.33C146.332 270.33 150.897 265.433 155.213 266.678C159.446 267.923 157.952 275.227 157.952 275.227C157.952 275.227 167.746 270.662 177.457 274.646C184.097 277.302 185.591 283.527 185.923 287.262Z" fill="#FF8D76"/>
<path d="M201.693 275.393C200.282 282.365 193.974 287.262 186.836 287.262H185.84C185.84 287.262 201.112 274.729 194.721 265.433C188.413 256.22 170.07 265.682 169.738 265.848C169.904 265.267 174.635 249.995 168.493 247.422C162.268 244.849 150.98 261.117 150.98 261.117C150.98 261.117 151.561 235.802 139.194 234.391C125.831 232.897 120.602 259.291 120.602 259.291C120.602 259.291 111.638 249.414 105.33 251.489C99.2712 253.564 101.678 261.532 101.844 262.03L100.848 260.453C99.6862 257.963 97.1132 250.659 103.421 248.418C111.14 245.596 118.444 253.647 118.444 253.647C118.444 253.647 122.677 229.494 140.522 229.494C158.367 229.494 152.806 253.979 152.806 253.979C152.806 253.979 162.6 238.541 171.73 243.106C180.694 247.588 174.386 260.785 174.22 261.283C174.801 260.868 188.745 251.406 198.373 262.362C202.025 266.678 202.523 271.243 201.693 275.393Z" fill="#FFD29C"/>
<path d="M141.269 49.7991C141.269 49.7991 142.431 49.7161 144.506 49.4671C146.581 49.3011 149.569 49.0521 153.138 48.8031C156.707 48.5541 160.94 48.3051 165.422 48.1391C167.663 48.0561 169.987 47.9731 172.394 47.8901C174.801 47.8071 177.208 47.8071 179.532 47.7241C184.346 47.6411 189.16 47.5581 193.725 47.6411C198.207 47.6411 202.44 47.8071 206.092 47.8901C209.661 48.0561 212.732 48.2221 214.807 48.3881C215.886 48.4711 216.716 48.5541 217.214 48.5541C217.795 48.6371 218.127 48.6371 218.127 48.6371C218.708 48.7201 219.04 48.9691 218.957 49.3011C218.874 49.5501 218.376 49.7991 217.878 49.7991H217.795C217.795 49.7991 216.633 49.7991 214.558 49.7161C212.483 49.6331 209.495 49.6331 205.926 49.6331C202.357 49.6331 198.207 49.6331 193.725 49.6331C191.484 49.6331 189.16 49.7161 186.836 49.7161C184.512 49.7161 182.105 49.7991 179.698 49.7991C174.884 49.8821 170.153 49.9651 165.671 50.1311C161.189 50.2141 157.039 50.3801 153.47 50.4631C146.332 50.7121 141.518 50.8781 141.518 50.8781C140.937 50.8781 140.439 50.6291 140.439 50.2971C140.356 50.1311 140.688 49.7991 141.269 49.7991Z" fill="#E1EAF6"/>
<path d="M121.1 55.609C121.1 55.609 120.685 55.692 119.938 55.941C119.191 56.19 118.112 56.522 116.867 57.103C116.286 57.352 115.539 57.767 115.041 58.182C114.709 58.348 114.543 58.597 114.294 58.846C114.128 59.095 114.045 59.261 114.045 59.427C114.045 59.593 114.128 59.676 114.211 59.842C114.294 59.925 114.377 60.008 114.543 60.174C114.626 60.257 114.792 60.423 114.958 60.506C115.622 61.004 116.618 61.502 117.614 62C118.195 62.249 118.693 62.498 119.357 62.664L119.772 62.83L120.021 62.913H120.104C120.104 62.913 119.938 62.83 120.021 62.913H120.104C120.436 62.996 120.768 63.079 121.1 63.245C121.764 63.494 122.428 63.66 123.175 63.909C123.839 64.075 124.503 64.241 125.167 64.407C127.906 65.071 130.977 65.652 134.131 66.15C137.368 66.565 140.605 66.98 144.091 67.312C147.494 67.644 150.98 67.81 154.466 68.059C157.952 68.225 161.438 68.391 164.924 68.474C168.41 68.557 171.813 68.723 175.05 68.723C178.37 68.723 181.607 68.889 184.595 68.889C187.583 68.889 190.488 68.972 193.144 68.972C203.768 68.972 210.823 68.972 210.823 68.972C211.404 68.972 211.902 69.387 211.902 69.802C211.902 70.217 211.487 70.549 210.989 70.632C210.989 70.632 210.574 70.715 209.744 70.798C208.914 70.881 207.669 71.047 206.175 71.213C203.104 71.545 198.705 71.96 193.31 72.292C190.654 72.458 187.749 72.624 184.678 72.707C183.184 72.79 181.607 72.79 179.947 72.873C178.287 72.956 176.71 72.956 175.05 72.956C171.73 72.956 168.244 73.039 164.758 72.956C161.272 72.873 157.703 72.79 154.051 72.624C150.482 72.458 146.913 72.126 143.344 71.794C139.858 71.462 136.372 70.881 133.052 70.3C131.392 69.968 129.732 69.636 128.155 69.304C126.578 68.889 125.001 68.557 123.507 68.059C122.76 67.81 122.013 67.561 121.266 67.395C120.602 67.146 119.938 66.897 119.274 66.648C118.942 66.482 118.61 66.399 118.278 66.233L118.195 66.15L118.029 66.067H117.946L117.697 65.984L117.199 65.735C116.535 65.486 115.954 65.154 115.29 64.822C114.045 64.158 112.883 63.494 111.887 62.581C111.638 62.332 111.389 62.083 111.14 61.834C110.891 61.585 110.725 61.253 110.559 60.921C110.227 60.257 110.144 59.427 110.31 58.68C110.559 57.933 110.974 57.435 111.472 56.937C111.97 56.522 112.385 56.19 112.883 55.941C113.796 55.443 114.709 55.111 115.456 54.862C117.033 54.364 118.278 54.115 119.108 53.949C119.938 53.783 120.436 53.783 120.436 53.783C121.017 53.7 121.515 54.032 121.598 54.53C121.93 55.111 121.598 55.526 121.1 55.609Z" fill="#E1EAF6"/>
<path d="M291.665 68.308C290.503 70.964 289.341 73.454 288.179 75.778C278.468 94.536 267.18 101.176 262.698 100.263C257.718 99.184 260.125 94.038 256.722 91.88C253.236 89.722 243.691 97.69 237.383 93.706C231.158 89.722 233.399 83.165 227.34 82.667C221.364 82.086 214.89 84.493 208.665 80.924C202.44 77.355 204.764 74.533 216.467 65.32C228.253 56.107 234.976 41.001 238.047 24.484C240.454 11.536 245.932 4.31503 253.236 1.49303C260.623 -1.32897 269.919 0.497038 279.63 5.64304C298.886 15.852 302.04 43.823 291.665 68.308Z" fill="#FF97C9"/>
<path d="M288.179 75.6949C278.468 94.4529 267.18 101.093 262.698 100.18C257.718 99.1009 260.125 93.9549 256.722 91.7969C253.236 89.6389 243.691 97.6069 237.383 93.6229C231.158 89.6389 233.399 83.0819 227.34 82.5839C221.364 82.0029 214.89 84.4099 208.665 80.8409C202.44 77.2719 204.764 74.4499 216.467 65.2369C228.253 56.0239 234.976 40.9179 238.047 24.4009C240.454 11.4529 245.932 4.23191 253.236 1.40991C251.41 5.31091 247.675 14.2749 244.106 28.1359C239.624 45.2339 237.881 54.7789 240.62 63.5769C243.359 72.3749 249.086 74.2839 257.469 72.0429C265.852 69.8019 262.449 80.8409 273.239 80.7579C278.551 80.7579 284.029 78.2679 288.179 75.6949Z" fill="#FF8AC7"/>
<path d="M249.169 56.1901C248.837 56.2731 238.047 58.8461 230.909 59.3441C223.771 59.8421 214.641 59.4271 211.819 54.6961C210.491 52.4551 210.657 51.0441 212.151 49.7991C213.894 48.3881 217.463 47.3091 222.692 45.8151C232.569 42.9931 243.857 37.2661 243.857 37.2661C259.212 41.0841 249.169 56.1901 249.169 56.1901Z" fill="#FF97C9"/>
<path d="M249.169 56.1901C248.837 56.2731 238.047 58.8461 230.909 59.3441C223.771 59.8421 214.641 59.4271 211.819 54.6961C210.491 52.4551 210.657 51.0441 212.151 49.7991C213.728 51.2101 216.301 52.7041 220.368 53.9491C231.739 57.4351 249.169 56.1901 249.169 56.1901Z" fill="#FF8AC7"/>
<path d="M229.249 60.672C226.344 60.672 223.356 60.589 220.617 60.257C212.151 59.427 210.159 54.53 209.744 53.285C209.412 52.787 209.246 52.123 209.412 51.376C209.827 49.55 212.068 47.973 216.135 46.562C223.937 43.823 229.083 41.914 235.391 39.341C242.114 36.519 244.189 36.602 244.521 36.685C245.185 36.768 245.683 37.349 245.6 38.096C245.517 38.76 244.936 39.258 244.189 39.175C244.189 39.175 242.363 39.175 236.304 41.665C229.996 44.321 224.767 46.147 216.965 48.969C212.151 50.629 211.819 51.957 211.819 52.04C211.985 52.206 212.068 52.3721 212.068 52.5381C212.068 52.7041 213.23 57.103 220.783 57.85C229.415 58.68 240.039 58.099 245.019 56.605C249.501 55.194 250.663 52.7871 251.327 48.3881C251.41 47.7241 252.074 47.226 252.738 47.309C253.402 47.392 253.9 48.056 253.817 48.72C253.07 53.783 251.41 57.186 245.766 59.012C242.197 60.008 235.806 60.672 229.249 60.672Z" fill="#F774B9"/>
<path d="M263.528 101.176C263.03 101.176 262.449 101.093 262.034 100.927C259.378 100.014 258.714 98.52 257.967 95.449C257.801 94.702 257.303 93.374 256.141 92.793C255.062 92.295 253.568 92.461 251.825 93.291C245.766 96.113 240.454 96.445 236.055 94.121C233.15 92.627 232.071 89.639 231.241 87.315C230.577 85.572 229.996 83.995 229 83.746C227.589 83.331 225.182 83.58 222.692 83.746C219.289 83.995 215.471 84.327 211.985 83.58C207.005 82.584 205.345 80.509 204.764 78.932C204.266 77.687 204.183 75.695 206.175 73.122C209.246 69.221 221.696 58.597 222.277 58.182C222.775 57.767 223.605 57.767 224.02 58.348C224.435 58.846 224.435 59.676 223.854 60.091C223.688 60.174 211.072 70.964 208.084 74.699C207.337 75.612 206.59 76.94 207.088 78.102C207.586 79.43 209.578 80.592 212.483 81.173C215.72 81.837 219.289 81.505 222.526 81.256C225.431 81.007 227.921 80.841 229.747 81.339C231.988 82.003 232.818 84.244 233.648 86.485C234.478 88.643 235.308 90.884 237.3 91.963C240.952 93.872 245.517 93.623 250.829 91.133C253.983 89.639 256.058 90.054 257.303 90.635C258.88 91.382 259.959 92.959 260.457 95.034C261.121 97.939 261.536 98.271 262.947 98.686C264.358 99.184 267.263 96.943 268.508 96.196C269.089 95.864 269.836 96.03 270.251 96.611C270.583 97.192 270.417 97.939 269.836 98.354C269.255 98.437 266.267 101.176 263.528 101.176Z" fill="#F774B9"/>
<path d="M233.98 42.3289C233.814 42.3289 233.731 42.3289 233.565 42.2459C232.901 41.9969 232.569 41.3329 232.735 40.6689C232.735 40.5859 234.81 34.1949 236.055 27.9699C237.134 22.5749 239.375 12.8639 242.944 8.04991C247.177 2.23991 255.311 0.745908 255.643 0.662908C256.307 0.496908 256.971 0.828908 257.22 1.49291C257.386 2.15691 257.054 2.82091 256.39 3.06991C256.307 3.06991 248.671 4.48091 244.936 9.54391C241.533 14.1089 239.292 24.3179 238.545 28.4679C237.3 34.8589 235.225 41.4159 235.225 41.4989C234.976 41.9139 234.478 42.3289 233.98 42.3289Z" fill="#F774B9"/>
<path d="M281.456 61.419C281.124 62.083 280.626 62.747 280.045 63.328C275.48 68.474 267.678 71.13 265.354 67.81C264.026 65.901 263.777 63.909 264.358 61.917C265.769 56.439 272.824 51.376 277.223 51.459C282.452 51.459 284.195 56.605 281.456 61.419Z" fill="#1C3177"/>
<path d="M281.456 61.419C281.124 62.083 280.626 62.747 280.045 63.328C275.48 68.474 267.678 71.13 265.354 67.81C264.026 65.901 263.777 63.909 264.358 61.917C268.591 59.012 280.377 58.846 281.456 61.419Z" fill="#F774B9"/>
<path d="M289.341 25.9781C285.689 25.9781 282.12 33.1991 285.191 38.0131C288.262 42.8271 293.325 40.0051 294.404 35.8551C295.649 30.8751 294.487 25.8951 289.341 25.9781Z" fill="white"/>
<path d="M287.432 32.2861C285.274 32.0371 283.116 35.4401 284.859 38.0961C286.602 40.7521 289.59 39.6731 290.254 37.5981C291.084 35.1911 290.503 32.5351 287.432 32.2861Z" fill="#1C3177"/>
<path d="M270.002 22.16C266.101 21.662 261.038 28.717 263.611 34.444C266.184 40.171 271.994 37.847 273.82 33.614C276.061 28.468 275.646 22.907 270.002 22.16Z" fill="white"/>
<path d="M265.603 28.717C263.445 28.468 261.287 31.871 263.03 34.527C264.773 37.183 267.761 36.104 268.425 34.029C269.255 31.622 268.674 29.049 265.603 28.717Z" fill="#1C3177"/>
</svg>
