<svg xmlns="http://www.w3.org/2000/svg" width="434" height="596" viewBox="0 0 434 596" fill="none">
<path d="M24.2018 420.754C31.8265 419.951 39.8127 420.748 47.4805 420.722C49.8683 420.712 52.2571 420.475 54.6428 420.586C57.2772 420.708 59.8715 421.253 62.4873 421.584C65.6506 421.976 68.8432 422.077 72.025 421.886C74.6409 421.733 77.0358 420.409 79.4544 419.345C84.9005 416.947 90.2473 414.338 95.4948 411.516C105.932 405.885 115.975 399.553 125.555 392.563C144.831 378.564 162.345 362.263 178.631 344.913C184.822 338.318 190.855 331.579 196.728 324.694C243.491 270.137 288.453 133.702 290.236 128.255C290.254 128.201 288.526 122.744 288.481 122.779C286.36 124.474 238.066 158.379 226.84 166.257C226.537 166.471 226.193 166.622 225.83 166.701C225.467 166.78 225.092 166.785 224.727 166.716C224.362 166.647 224.014 166.506 223.705 166.3C223.395 166.094 223.131 165.828 222.926 165.518C220.927 162.513 216.807 156.47 216.05 154.204C215.897 153.746 216.619 154.233 216.72 153.761C216.848 153.334 217.078 152.945 217.389 152.626C222.013 147.103 227.654 142.52 233.411 138.186C238.026 134.711 242.741 131.375 247.555 128.177C249.734 126.834 251.699 125.171 253.384 123.245C255.297 121.041 257.213 118.841 259.132 116.644C266.787 107.879 274.496 99.1601 282.17 90.4104C296.308 74.2889 310.322 58.0461 323.692 41.2835C326.133 38.2248 328.898 34.9288 334.252 36.8573C337.032 37.916 339.32 39.9688 340.673 42.6181C340.825 43.9599 342.431 45.9244 343.072 47.1296C343.956 48.7892 344.839 50.4489 345.721 52.1085L368.365 94.6774C372.261 102.001 376.157 109.324 380.052 116.647L385.548 126.98C387.348 130.364 388.897 133.795 391.247 136.804C391.543 137.152 391.793 137.536 391.99 137.947C392.148 138.361 392.251 138.794 392.298 139.235C392.705 142.035 392.971 144.85 393.097 147.681C393.202 148.754 393.113 149.838 392.836 150.88C392.692 151.4 392.423 151.877 392.051 152.268C391.68 152.66 391.218 152.955 390.707 153.126C388.273 153.769 385.409 152.073 383.464 150.814L377.562 146.989L364.486 138.52L343.151 124.699C343.108 124.672 343.048 124.692 343.057 124.742C343.449 128.808 354.368 244.707 332.856 318.666C328.61 333.28 323.553 347.646 317.707 361.696C298.359 408.15 270.177 451.116 234.325 486.508C220.704 500.085 205.833 512.348 189.91 523.135C183.421 527.483 176.593 531.106 169.915 535.119C167.013 536.865 163.066 539.911 160.678 535.774C157.894 530.834 155.622 525.622 153.896 520.221C153.743 519.74 154.2 519.538 154.28 519.04C154.387 518.581 154.592 518.15 154.88 517.776C156.113 515.917 157.484 514.13 158.539 512.174C159.861 509.862 160.755 507.332 161.18 504.703C161.602 501.735 161.034 498.427 160.833 495.437C160.388 488.818 159.78 482.213 159.009 475.622C158.109 467.923 156.988 460.255 155.645 452.617C154.548 446.35 154.776 444.477 148.713 446.224C127.629 452.486 105.581 454.861 83.6464 453.233C71.3911 452.251 58.6036 448.889 46.9473 445.154C42.8736 444 38.9493 442.372 35.2551 440.304C33.1118 438.999 25.1245 424.6 24.2018 420.754Z" fill="#FF9100"/>
<path d="M386.427 141.423L335.625 108.514C335.584 108.482 335.53 108.507 335.534 108.544C335.924 112.623 346.836 228.515 325.334 302.486C321.088 317.096 316.029 331.458 310.181 345.504C290.828 391.944 262.666 434.933 226.812 470.321C213.176 483.887 198.301 496.149 182.382 506.945C175.898 511.303 169.05 514.917 162.379 518.942C159.636 520.578 156.036 523.879 154.019 520.414C152.491 517.807 154.217 509.027 154.224 505.835C154.216 497.719 153.96 489.612 153.457 481.514C153.01 474.138 152.354 466.779 151.488 459.439C150.574 451.723 149.453 444.052 148.125 436.424C147.972 435.565 147.845 434.78 147.729 434.081C146.973 429.726 146.425 428.519 141.185 430.029C141.148 430.029 141.095 430.058 141.058 430.062C82.1658 446.982 23.1395 428.071 23.795 419.393C23.8085 419.056 23.8989 418.727 24.0591 418.43C25.2807 415.884 36.7901 415.192 39.7614 414.406C45.5048 412.895 51.2194 411.125 56.8343 409.144C110.42 390.196 152.834 350.946 189.194 308.503C235.969 253.941 280.923 117.516 282.709 112.056C282.726 112.036 282.683 111.985 282.631 112.028C280.218 113.944 247.876 139.696 221.094 155.746C220.35 156.189 219.474 156.357 218.619 156.221C217.764 156.084 216.984 155.652 216.415 155C215.845 154.348 215.523 153.516 215.504 152.651C215.485 151.785 215.77 150.94 216.309 150.263L316.176 25.1003C318.315 22.4125 320.697 19.5521 324.855 20.1953C325.491 20.2911 326.116 20.4515 326.72 20.6741C329.514 21.7276 331.813 23.7899 333.162 26.4544C349.655 57.4594 378.655 111.973 391.733 136.574C392.113 137.301 392.242 138.133 392.1 138.941C391.958 139.749 391.552 140.487 390.947 141.041C390.341 141.594 389.569 141.932 388.752 142.001C387.935 142.07 387.117 141.867 386.427 141.423V141.423Z" fill="#FFB200"/>
<g style="mix-blend-mode:multiply" opacity="0.283">
<path d="M386.427 141.423L335.625 108.514C335.584 108.482 335.53 108.507 335.534 108.544C335.924 112.623 346.836 228.515 325.334 302.486C321.088 317.096 316.029 331.458 310.181 345.504C290.828 391.944 262.666 434.933 226.812 470.321C213.176 483.887 198.301 496.149 182.382 506.945C175.898 511.303 169.05 514.917 162.379 518.942C159.636 520.578 156.035 523.879 154.019 520.414C152.491 517.807 154.217 509.027 154.224 505.835C154.216 497.719 153.96 489.612 153.457 481.514C153.01 474.138 152.354 466.779 151.488 459.439C150.574 451.723 149.453 444.052 148.125 436.424C147.972 435.565 147.845 434.78 147.729 434.081C216.024 389.071 258.84 308.872 285.235 230.315C316.07 138.451 324.448 48.8053 324.853 20.1901C325.489 20.2859 326.114 20.4464 326.718 20.6689C329.512 21.7225 331.811 23.7848 333.16 26.4493C349.653 57.4543 378.653 111.968 391.731 136.569C392.113 137.296 392.243 138.129 392.102 138.937C391.96 139.746 391.555 140.485 390.949 141.04C390.344 141.594 389.572 141.932 388.754 142.001C387.936 142.071 387.118 141.867 386.427 141.423V141.423Z" fill="#FFB200"/>
</g>
<path d="M201.25 57.2062L149.362 63.1043C145.819 63.5071 143.273 66.7062 143.676 70.2497L148.211 110.151C148.614 113.695 151.813 116.241 155.357 115.838L207.244 109.94C210.788 109.537 213.334 106.338 212.931 102.794L208.395 62.893C207.992 59.3494 204.793 56.8034 201.25 57.2062Z" fill="#0090C6"/>
<path d="M186.024 110.211L194.363 120.164C194.514 120.345 194.71 120.482 194.931 120.563C195.152 120.645 195.39 120.666 195.622 120.626C195.854 120.586 196.072 120.485 196.253 120.335C196.434 120.184 196.572 119.988 196.653 119.767C198.007 115.932 199.042 111.992 199.748 107.987" fill="#0090C6"/>
<g style="mix-blend-mode:multiply" opacity="0.283">
<g style="mix-blend-mode:multiply" opacity="0.283">
<path d="M276.617 259.86C273.888 270.657 281.362 281.247 282.674 292.294C283.946 302.992 279.474 316.189 274.231 325.388C255.018 359.157 222.685 387.673 187.736 404.319C183.795 406.196 179.722 407.903 176.236 410.531C166.578 417.816 163.206 430.576 160.45 442.357L154.554 467.571C154.267 468.797 153.908 469.67 152.684 469.667C151.949 466.401 151.892 462.813 151.491 459.439C150.577 451.723 149.457 444.052 148.128 436.424C147.975 435.565 147.848 434.78 147.732 434.081C146.976 429.726 146.428 428.519 141.188 430.029C141.151 430.029 141.098 430.058 141.061 430.062C152.325 394.183 170.01 360.648 193.255 331.087L196.255 327.761C204.712 306.777 213.157 285.8 221.589 264.831C225.866 254.193 230.158 243.517 236.036 233.668C242.177 223.34 249.213 214.312 261.634 212.284C267.736 211.292 274.676 211.77 279.085 216.086C280.545 217.579 281.728 219.321 282.578 221.23C284.434 225.179 285.426 229.479 285.488 233.842C285.549 238.205 284.679 242.531 282.934 246.531C280.932 251.028 277.829 255.097 276.617 259.86Z" fill="#494949"/>
</g>
</g>
<path d="M170.073 88.9186C170.18 89.8567 170.006 90.8053 169.573 91.6445C169.141 92.4837 168.469 93.1758 167.643 93.6332C166.817 94.0906 165.874 94.2928 164.933 94.2143C163.992 94.1357 163.096 93.7799 162.357 93.1919C161.619 92.6039 161.071 91.81 160.784 90.9107C160.496 90.0114 160.482 89.047 160.742 88.1396C161.003 87.2321 161.527 86.4223 162.248 85.8126C162.969 85.2029 163.854 84.8207 164.792 84.7143C166.05 84.5716 167.313 84.9344 168.304 85.7228C169.294 86.5112 169.931 87.6608 170.073 88.9186V88.9186Z" fill="#FEFEFE"/>
<path d="M178.465 92.7386C181.101 92.7386 183.238 90.6014 183.238 87.9651C183.238 85.3288 181.101 83.1916 178.465 83.1916C175.828 83.1916 173.691 85.3288 173.691 87.9651C173.691 90.6014 175.828 92.7386 178.465 92.7386Z" fill="#FEFEFE"/>
<path d="M196.341 85.9329C196.448 86.8709 196.274 87.8196 195.841 88.6589C195.409 89.4981 194.737 90.1903 193.911 90.6479C193.086 91.1055 192.143 91.3079 191.202 91.2295C190.261 91.1512 189.365 90.7956 188.626 90.2077C187.887 89.6198 187.339 88.8261 187.052 87.9268C186.764 87.0276 186.749 86.0632 187.01 85.1558C187.27 84.2483 187.794 83.4384 188.515 82.8285C189.235 82.2187 190.121 81.8362 191.059 81.7296C192.317 81.5866 193.58 81.9491 194.57 82.7373C195.561 83.5256 196.198 84.6751 196.341 85.9329V85.9329Z" fill="#FEFEFE"/>
<path d="M371.586 308.282C401.479 304.885 423.08 278.962 419.832 250.382C416.583 221.802 389.717 201.387 359.823 204.785C329.929 208.182 308.329 234.105 311.577 262.685C314.825 291.265 341.692 311.68 371.586 308.282Z" fill="#F24B57"/>
<path d="M370.258 296.553C393.382 293.924 410.091 273.871 407.578 251.763C405.065 229.655 384.282 213.864 361.158 216.492C338.034 219.121 321.325 239.174 323.838 261.282C326.351 283.39 347.134 299.181 370.258 296.553Z" fill="#FEFEFE"/>
<path d="M368.907 284.662C385.162 282.814 396.907 268.718 395.141 253.177C393.374 237.636 378.765 226.536 362.51 228.383C346.254 230.231 334.509 244.327 336.276 259.868C338.042 275.409 352.652 286.509 368.907 284.662Z" fill="#F24B57"/>
<path d="M367.558 272.804C376.963 271.735 383.759 263.579 382.737 254.587C381.715 245.595 373.262 239.172 363.856 240.241C354.451 241.31 347.655 249.466 348.677 258.458C349.699 267.451 358.153 273.874 367.558 272.804Z" fill="#FEFEFE"/>
<path d="M366.637 264.7C371.36 264.163 374.773 260.067 374.26 255.55C373.747 251.034 369.501 247.809 364.778 248.346C360.054 248.882 356.641 252.979 357.154 257.495C357.668 262.011 361.913 265.237 366.637 264.7Z" fill="#F24B57"/>
<path d="M391.756 353.757C390.927 351.35 388.15 350.05 385.14 350.447C385.645 347.453 384.446 344.63 382.071 343.716C379.257 342.632 375.867 344.634 374.499 348.185C373.067 352.191 373.046 356.565 374.438 360.584C375.272 360.96 381.036 362.674 385.919 361.456C386.29 361.382 386.656 361.284 387.014 361.163C390.614 359.924 392.737 356.608 391.756 353.757Z" fill="#F24B57"/>
<path d="M104.776 107.786C101.572 108.001 99.0733 110.952 98.5637 114.748C95.0848 113.146 91.2546 113.675 89.3569 116.265C87.1099 119.334 88.4322 124.122 92.3015 126.958C96.7066 130.022 102.025 131.491 107.378 131.122C108.109 130.23 112.097 123.778 112.224 117.431C112.255 116.955 112.255 116.477 112.224 116.001C111.906 111.21 108.571 107.533 104.776 107.786Z" fill="#F24B57"/>
<path d="M66.9279 231.223C64.0963 232.736 63.0329 236.454 64.1292 240.124C60.2989 240.094 57.0254 242.152 56.3617 245.293C55.5747 249.015 58.7454 252.836 63.4439 253.829C68.7189 254.81 74.1705 253.961 78.8975 251.422C79.1965 250.309 80.1788 242.792 77.6842 236.951C77.5178 236.503 77.3224 236.067 77.0995 235.645C74.8371 231.41 70.2825 229.43 66.9279 231.223Z" fill="#F24B57"/>
<path d="M95.8195 265.406C93.553 265.797 91.9922 268.086 91.9152 270.83C89.3168 269.947 86.627 270.609 85.467 272.596C84.0943 274.951 85.3899 278.264 88.3623 279.993C91.7286 281.85 95.628 282.503 99.4155 281.843C99.8697 281.152 102.233 276.258 101.85 271.726C101.838 271.384 101.803 271.043 101.747 270.706C101.157 267.315 98.5052 264.942 95.8195 265.406Z" fill="#F24B57"/>
<path d="M190.273 233.351C190.75 232.846 191.191 232.31 191.595 231.746C192.642 230.275 194.146 229.24 195.198 227.717C196.431 225.933 198.023 224.451 198.62 222.291C199.103 220.182 198.88 217.972 197.987 216.001C197.417 214.445 196.441 213.07 195.159 212.018C194.515 211.5 193.756 211.146 192.945 210.985C192.135 210.824 191.297 210.861 190.504 211.093C189.804 211.351 189.166 211.755 188.632 212.277C186.96 213.998 185.965 216.265 185.831 218.66C185.626 220.878 186.481 223.193 186.254 225.327C186.074 227.024 184.722 228.984 184.036 230.574" fill="#F4BE90"/>
<path d="M206.23 344.364L209.101 346.7C200.229 357.204 180.144 359.117 167.374 356.739C166.88 356.653 165.738 356.37 164.109 355.943C153.36 353.192 121.688 344.349 121.513 342.803C124.174 365.209 120.322 387.814 116.499 410.045C115.626 415.142 115.191 428.716 107.963 425.879C107.265 425.602 106.602 425.243 105.99 424.808C102.885 422.67 101.989 418.54 101.353 414.828C96.7517 387.489 93.3689 359.984 91.2051 332.31C90.8794 328.189 90.6607 323.758 92.7916 320.213C97.0225 313.227 107.176 313.88 115.259 315.097C136.607 318.282 157.858 317.357 179.237 318.816C185.851 319.26 192.56 318.412 199.109 319.418C205.658 320.424 212.456 323.867 214.881 330.041C217.306 336.215 212.853 344.764 206.23 344.364Z" fill="#43496D"/>
<g style="mix-blend-mode:multiply" opacity="0.356">
<g style="mix-blend-mode:multiply" opacity="0.356">
<path d="M172.622 348.52C170.379 350.701 168.04 352.777 165.607 354.75C165.143 355.123 164.598 355.382 164.015 355.505C163.433 355.629 162.829 355.614 162.254 355.462C153.45 353.156 136.047 348.299 127.105 345.25C126.509 345.048 125.872 344.998 125.251 345.103C124.63 345.208 124.046 345.466 123.549 345.853C123.053 346.24 122.66 346.744 122.407 347.32C122.153 347.897 122.047 348.527 122.097 349.154C123.446 369.475 119.961 389.914 116.499 410.047C116.317 411.109 116.155 412.539 115.945 414.111C115.294 419.004 107.975 418.214 108.37 413.289C108.444 412.364 108.521 411.447 108.596 410.527C110.747 384.86 111.843 359.129 111.883 333.335C111.879 332.822 111.979 332.313 112.177 331.84C112.376 331.366 112.669 330.939 113.039 330.583C113.409 330.227 113.848 329.95 114.328 329.77C114.809 329.589 115.321 329.509 115.834 329.533C119.932 329.794 124 331.093 127.973 332.281C141.97 336.452 156.316 339.327 170.673 342.017C171.363 342.145 172.003 342.462 172.525 342.93C173.047 343.399 173.429 344.003 173.63 344.674C173.832 345.346 173.844 346.06 173.666 346.739C173.489 347.417 173.127 348.034 172.622 348.52V348.52Z" fill="#15233A"/>
</g>
</g>
<path d="M233.555 352.123C229.24 358.31 223.922 363.733 217.821 368.168C205.679 377.258 192.602 385.026 178.811 391.339C166.942 396.736 163.249 405.959 160.022 417.906C155.453 434.826 149.748 451.522 144.618 468.284C141.433 478.711 136.056 491.038 125.208 492.143C126.521 470.523 128.795 448.973 131.361 427.469C133.528 409.297 132.372 384.673 142.878 368.944C149.756 358.648 160.203 351.229 170.231 344.269C180.309 337.273 189.758 329.545 199.504 322.335C206.572 317.106 214.062 311.702 222.785 310.602C238.22 308.65 242.27 323.418 240.213 335.912C239.186 341.732 236.915 347.261 233.555 352.123V352.123Z" fill="#43496D"/>
<path d="M255.02 272.279C254.901 273.525 254.764 274.79 254.594 276.081C252.399 291.496 248.994 306.715 244.41 321.596C243.554 324.479 242.428 327.275 241.048 329.947C240.802 330.502 240.402 330.975 239.896 331.31C239.212 331.686 238.375 331.389 237.594 331.403C232.991 331.46 228.71 331.443 224.751 331.352C220.279 331.244 216.207 331.054 212.464 330.789C210.941 330.686 209.491 330.567 208.075 330.429C187.651 328.534 178.707 324.382 174.908 321.659C174.784 321.556 174.664 321.482 174.541 321.384C173.64 320.775 172.877 319.985 172.299 319.064C172.299 319.064 175.599 311.654 177.202 308.187C181.585 298.807 185.138 289.18 188.753 279.461C191.029 273.381 193.033 267.201 195.31 261.138C197.468 255.369 202.502 249.739 206.385 244.969C207.52 243.484 208.851 242.158 210.342 241.03C212.715 239.417 215.594 238.81 218.406 238.266C221.337 237.531 224.362 237.244 227.379 237.414C228.416 237.532 229.446 237.714 230.461 237.959C234.3 238.646 238.048 239.773 241.629 241.317C246.733 243.74 250.945 247.707 253.667 252.657C255.718 256.414 255.877 263.728 255.02 272.279Z" fill="#0090C6"/>
<g style="mix-blend-mode:multiply" opacity="0.277">
<g style="mix-blend-mode:multiply" opacity="0.277">
<path d="M255.02 272.279C254.901 273.525 254.764 274.79 254.594 276.081C252.399 291.496 248.994 306.715 244.41 321.596C243.554 324.479 242.428 327.275 241.048 329.947C240.802 330.502 240.402 330.975 239.896 331.31C239.212 331.686 238.375 331.389 237.594 331.403C232.991 331.46 228.71 331.443 224.751 331.352C248.722 302.236 241.69 290.608 255.02 272.279Z" fill="#0090C6"/>
</g>
</g>
<path d="M216.724 257.61C216.98 257.442 217.198 257.223 217.363 256.965C217.528 256.707 217.636 256.417 217.68 256.114C217.724 255.811 217.704 255.503 217.62 255.209C217.535 254.914 217.39 254.642 217.192 254.408C215.401 250.847 222.213 237.437 218.296 238.184C203.95 240.918 191.649 251.149 182.092 261.585C186.263 255.529 188.565 248.449 190.209 241.344C190.966 238.074 191.357 234.743 192.706 231.711C194.03 228.731 191.556 227.857 189.12 226.605C188.668 226.343 188.176 226.157 187.663 226.056C184.857 225.645 180.82 230.621 179.041 232.441C176.44 235.103 174.097 238.004 172.042 241.107C167.977 247.221 165.101 254.045 163.563 261.224C162.257 267.402 160.396 277.598 168.014 280.122C170.389 280.797 172.882 280.952 175.323 280.578C178.296 280.246 181.224 279.592 184.056 278.626C186.179 277.907 188.238 277.007 190.294 276.113L195.313 273.929C197.514 273.033 199.649 271.982 201.702 270.784C204.557 268.9 207.188 266.697 209.544 264.218C211.842 261.96 214.379 259.862 216.724 257.61Z" fill="#0090C6"/>
<path d="M246.652 244.255C246.538 246.904 246.285 249.544 245.893 252.166C245.077 255.371 243.788 258.527 242.749 261.667C241.624 265.061 241.296 268.669 241.794 272.209C242.164 274.403 243.721 276.746 244.604 278.785C245.62 281.135 246.609 283.496 247.573 285.867C249.908 292.839 250.208 300.333 248.437 307.469C245.641 318.151 241.976 328.587 237.481 338.672C236.683 340.238 236.14 341.921 235.872 343.658C235.352 349.092 239.879 348.356 242.968 345.801C248.459 341.257 252.996 335.679 257.25 329.958C262.94 322.482 267.327 314.099 270.224 305.161C271.596 301.204 272.358 297.06 272.484 292.873C272.11 257.099 250.096 246.863 246.652 244.255Z" fill="#0090C6"/>
<path d="M244.423 224.685C242.864 230.534 241.6 236.457 240.637 242.433C239.177 251.425 225.195 249.245 226.652 240.235C226.858 238.924 227.086 237.647 227.328 236.33C227.347 236.16 227.381 235.97 227.418 235.797C227.888 233.374 228.382 230.986 228.949 228.589C228.986 228.416 229.038 228.224 229.075 228.051C229.498 226.194 229.958 224.331 230.457 222.482C231.435 218.77 234.435 215.947 238.538 216.582C242.035 217.139 245.402 220.993 244.423 224.685Z" fill="#F4BE90"/>
<g style="mix-blend-mode:multiply">
<g style="mix-blend-mode:multiply">
<path d="M240.274 226.931C238.859 230.438 236.122 233.249 232.655 234.757C230.958 235.519 229.166 236.049 227.328 236.333C227.347 236.163 227.381 235.973 227.418 235.8C227.888 233.377 228.382 230.989 228.949 228.592C231.41 228.793 233.887 228.518 236.244 227.781C237.54 227.309 238.897 227.023 240.274 226.931V226.931Z" fill="#F4BE90"/>
</g>
</g>
<path d="M115.595 430.234C115.776 430.059 115.938 429.865 116.076 429.655C117.036 428.199 116.777 426.295 116.548 424.568C116.191 421.877 115.994 419.166 115.96 416.452C115.943 415.058 116.898 411.277 114.607 411.549L102.199 413.015C102.064 413.02 101.933 413.058 101.816 413.124C101.72 413.218 101.648 413.332 101.604 413.458C101.56 413.585 101.545 413.719 101.561 413.852C101.645 415.161 101.47 416.474 101.047 417.715C100.376 418.948 98.3838 419.702 97.1345 420.099C95.443 420.57 93.7132 420.89 91.9654 421.057C87.5875 421.632 83.2415 422.421 78.8974 423.214C77.032 423.385 75.2481 424.06 73.7367 425.166C71.5616 427.097 71.688 429.655 74.0932 431.081C77.5989 433.161 82.5717 433.012 86.4975 432.958C90.9422 432.897 95.392 432.609 99.8305 432.383C102.776 432.233 105.721 432.07 108.666 431.893C110.752 431.754 113.929 431.837 115.595 430.234Z" fill="#252935"/>
<path d="M140.439 491.42C140.621 491.245 140.782 491.051 140.921 490.841C142.373 488.635 141.8 485.173 141.862 482.69C141.941 479.498 142.127 476.31 142.421 473.128C137.312 474.487 131.769 472.841 126.653 474.177C126.66 475.889 126.225 477.574 125.389 479.068C124.592 480.468 123.485 480.801 121.973 481.281C120.282 481.751 118.552 482.072 116.805 482.238C112.427 482.814 108.081 483.603 103.736 484.396C101.87 484.566 100.086 485.241 98.5751 486.348C96.4 488.279 96.5274 490.837 98.9316 492.264C102.438 494.343 107.411 494.194 111.336 494.139C115.781 494.08 120.231 493.792 124.669 493.565C127.614 493.415 130.56 493.251 133.505 493.075C135.597 492.94 138.773 493.023 140.439 491.42Z" fill="#252935"/>
<path d="M241.482 341.671C240.739 340.94 239.74 340.528 238.697 340.522C236.071 340.587 233.354 343.614 231.807 345.49C229.879 347.749 228.533 350.444 227.884 353.341C227.371 355.917 227.025 361.024 229.647 362.661C232.864 364.67 237.628 360.797 239.586 358.478C242.942 354.504 245.21 348.204 242.668 343.239C242.368 342.651 241.966 342.121 241.482 341.671Z" fill="#F4BE90"/>
<path d="M226.851 197.627C228.041 198.915 227.837 200.723 227.861 202.328C227.984 203.955 228.002 205.587 227.914 207.216C227.534 210.617 226.153 213.83 223.945 216.445C222.82 217.763 221.093 218.994 219.477 218.369C218.02 217.805 217.479 216.044 217.271 214.495C216.648 209.791 217.365 205.006 219.339 200.69C220.215 198.785 221.6 196.805 223.671 196.502C224.252 196.422 224.844 196.483 225.397 196.679C225.95 196.874 226.449 197.199 226.851 197.627V197.627Z" fill="#563624"/>
<path d="M231.283 198.509C225.504 198.779 221.093 203.971 219.148 209.503C217.739 213.263 217.422 217.345 218.234 221.277C218.65 223.244 219.472 225.102 220.648 226.732C221.824 228.363 223.327 229.729 225.062 230.745C228.88 232.806 233.52 232.564 237.527 231.139C239.928 230.297 242.14 228.989 244.035 227.291C244.746 226.646 245.469 226.014 246.205 225.397C246.697 224.986 247.078 224.24 247.638 223.972C248.004 223.828 248.385 223.724 248.774 223.664C249.768 223.435 250.692 222.973 251.471 222.315C252.077 221.837 252.531 221.192 252.776 220.46C252.898 219.972 252.947 219.469 252.922 218.967C252.794 217.284 252.772 215.595 252.856 213.91C253.094 211.817 253.1 209.418 251.63 207.893C250.48 206.699 248.819 206.419 247.463 205.578C245.97 204.653 245.535 202.847 244.323 201.548C241.611 198.64 237.013 197.28 233.725 199.312" fill="#F4BE90"/>
<path d="M239.124 190.275C238.829 188.776 238.201 187.362 237.286 186.138C236.372 184.914 235.194 183.91 233.84 183.201C232.249 182.419 230.469 182.101 228.705 182.285C226.941 182.468 225.265 183.145 223.868 184.238C217.969 189.08 221.422 198.025 227.301 201.138C232.659 203.976 242.725 200.39 246.065 206.995C247.834 210.488 245.183 214.712 245.851 218.573C246.936 218.355 247.532 217.226 248.093 216.272C248.654 215.317 249.607 214.319 250.679 214.59C251.08 214.761 251.431 215.033 251.697 215.379C251.963 215.725 252.135 216.134 252.198 216.565C252.54 217.674 252.565 218.857 252.269 219.98C252.114 220.537 251.822 221.047 251.42 221.464C251.018 221.88 250.519 222.189 249.967 222.363C249.393 222.513 248.786 222.477 248.2 222.569C247.341 222.765 246.542 223.166 245.872 223.739C245.202 224.312 244.681 225.038 244.354 225.857C243.612 227.492 242.538 230.702 245.083 229.018C246.454 228.051 247.726 226.95 248.879 225.73C252.339 222.347 254.823 218.093 256.071 213.417C256.94 209.943 256.657 206.281 255.266 202.981C254.892 201.967 254.269 201.064 253.454 200.356C253.042 200.008 252.544 199.778 252.013 199.69C251.481 199.602 250.935 199.659 250.433 199.856C250.251 198.068 249.854 196.309 249.251 194.616C248.635 192.909 247.424 191.482 245.84 190.597C244.768 190.087 243.564 189.922 242.394 190.123C241.224 190.324 240.145 190.882 239.305 191.721C239.281 191.235 239.221 190.752 239.124 190.275V190.275Z" fill="#563624"/>
<path d="M192.802 207.889C192.555 208.216 192.385 208.594 192.303 208.996C190.881 214.107 189.858 219.32 189.244 224.59C189.083 225.976 189.039 227.605 190.108 228.503C190.585 228.84 191.152 229.026 191.736 229.035C192.32 229.045 192.893 228.878 193.38 228.557C194.343 227.895 195.132 227.01 195.678 225.977C199.039 220.478 200.684 214.084 201.511 207.688" fill="#F24B57"/>
<path d="M215.633 204.856C215.137 208.533 213.282 212.084 209.739 213.083C208.225 213.452 206.649 213.484 205.121 213.179C201.908 212.649 198.504 211.263 195.76 210.773C193.579 210.366 191.373 210.099 189.157 209.974C186.901 209.846 184.639 209.841 182.382 209.96C173.443 210.417 164.671 212.403 155.803 213.523L170.701 163.331C175.809 170.673 181.703 177.437 188.277 183.501C190.114 185.109 192.053 186.597 194.083 187.954C195.356 188.817 196.681 189.637 198.003 190.439C201.394 192.48 204.536 194.548 208.323 195.853C208.939 196.059 209.583 196.264 210.206 196.498C211.413 196.882 212.535 197.495 213.509 198.305C214.364 199.146 215.003 200.18 215.373 201.32C215.742 202.461 215.832 203.674 215.633 204.856Z" fill="#F54B56"/>
<path d="M175.164 180.862C175.003 188.466 172.959 195.912 169.216 202.533C164.798 210.136 158.568 214.564 152.754 213.341C144.09 211.499 139.655 197.847 142.854 182.802C146.032 167.784 155.632 157.092 164.268 158.914C171.216 160.405 175.436 169.517 175.164 180.862Z" fill="#505982"/>
<path d="M172.742 181.623C172.73 182.017 172.721 182.428 172.691 182.823C172.69 183.005 172.68 183.187 172.661 183.368C172.551 185.255 172.296 187.131 171.898 188.979C171.392 191.389 170.66 193.746 169.713 196.019C169.536 196.43 169.358 196.841 169.18 197.236C168.73 198.242 168.225 199.222 167.665 200.171C163.872 206.686 158.556 210.48 153.565 209.424C146.167 207.858 142.373 196.159 145.106 183.271C147.825 170.428 156.042 161.278 163.421 162.825C169.371 164.111 172.981 171.911 172.742 181.623Z" fill="#252935"/>
<path d="M172.516 184.897C172.516 185.046 172.503 185.182 172.491 185.334C172.402 186.852 172.196 188.36 171.875 189.845C171.468 191.783 170.88 193.678 170.118 195.506C169.975 195.838 169.833 196.169 169.689 196.485C168.53 196.588 166.259 196.665 165.144 196.762C164.905 196.774 164.652 196.788 164.414 196.815C163.445 196.865 160.559 196.953 160.289 196.954C160.334 196.954 160.553 196.894 160.609 196.332C160.656 195.952 160.734 195.583 160.814 195.214C161.122 193.529 161.482 191.852 161.863 190.188C162.626 186.86 163.493 183.536 163.978 180.15C164.191 179.781 164.436 179.423 164.632 179.04C165.091 179.244 170.939 183.691 172.516 184.897Z" fill="url(#paint0_linear_4:86)"/>
<path d="M166.779 185.758C166.725 188.353 166.028 190.895 164.751 193.155C163.243 195.751 161.118 197.265 159.134 196.845C156.178 196.216 154.664 191.555 155.755 186.417C156.846 181.28 160.114 177.639 163.061 178.262C165.436 178.773 166.874 181.884 166.779 185.758Z" fill="#FFB200"/>
<path d="M215.633 204.856C215.136 208.533 213.282 212.084 209.738 213.083C208.224 213.451 206.649 213.484 205.121 213.179C208.424 209.725 210.793 203.484 210.204 196.498C211.411 196.882 212.533 197.495 213.507 198.305C214.362 199.145 215.002 200.18 215.372 201.32C215.742 202.461 215.832 203.673 215.633 204.856V204.856Z" fill="#252935"/>
<g style="mix-blend-mode:multiply" opacity="0.283">
<g style="mix-blend-mode:multiply" opacity="0.283">
<path d="M297.667 133.063C296.396 142.899 294.609 152.637 292.53 162.33C290.452 171.988 287.871 181.524 284.953 190.96C283.309 196.289 281.553 201.586 279.683 206.85C279.425 207.583 280.551 207.861 280.828 207.166C284.517 197.911 287.646 188.441 290.197 178.809C292.775 169.185 294.837 159.431 296.373 149.587C297.224 144.1 297.914 138.594 298.443 133.068C298.491 132.568 297.735 132.587 297.672 133.068L297.667 133.063Z" fill="#FF7900"/>
</g>
</g>
<g style="mix-blend-mode:multiply" opacity="0.283">
<g style="mix-blend-mode:multiply" opacity="0.283">
<path d="M297.802 180.505C296.045 190.285 293.781 199.942 291.22 209.538C288.669 219.101 285.617 228.516 282.234 237.815C280.325 243.058 278.31 248.263 276.186 253.432C275.934 254.048 276.992 254.502 277.272 253.89C281.41 244.832 285.002 235.534 288.029 226.047C291.063 216.626 293.594 207.051 295.612 197.362C296.755 191.84 297.732 186.289 298.545 180.707C298.615 180.227 297.891 180.009 297.802 180.501V180.505Z" fill="#FF7900"/>
</g>
</g>
<g style="mix-blend-mode:multiply" opacity="0.283">
<g style="mix-blend-mode:multiply" opacity="0.283">
<path d="M283.009 156.478C282.829 157.776 282.474 159.024 282.23 160.31C281.985 161.596 281.716 162.879 281.464 164.158C280.972 166.692 280.422 169.212 279.815 171.718C278.589 176.78 277.208 181.799 275.953 186.852C275.919 186.979 275.937 187.114 276.003 187.228C276.068 187.341 276.176 187.425 276.302 187.46C276.429 187.495 276.564 187.478 276.678 187.414C276.793 187.35 276.877 187.243 276.914 187.117C278.776 182.201 280.201 177.131 281.173 171.965C281.682 169.387 282.131 166.796 282.519 164.195C282.706 162.938 282.844 161.675 282.981 160.412C283.121 159.111 283.114 157.812 283.261 156.513C283.278 156.37 283.029 156.335 283.009 156.478Z" fill="#FF7900"/>
</g>
</g>
<g style="mix-blend-mode:multiply" opacity="0.283">
<g style="mix-blend-mode:multiply" opacity="0.283">
<path d="M171.639 460.032C177.216 455.952 182.743 451.746 188 447.259C193.226 442.799 198.31 438.179 203.251 433.398C213.127 423.838 222.346 413.621 230.844 402.818C235.642 396.728 240.226 390.451 244.395 383.914C244.787 383.297 243.853 382.794 243.44 383.355C235.272 394.42 226.876 405.295 217.676 415.53C208.583 425.73 198.916 435.404 188.721 444.504C182.968 449.596 177.15 454.596 171.114 459.349C170.731 459.651 171.242 460.321 171.639 460.03V460.032Z" fill="#FF7900"/>
</g>
</g>
<g style="mix-blend-mode:multiply" opacity="0.283">
<g style="mix-blend-mode:multiply" opacity="0.283">
<path d="M238.816 417.05C234.641 425.287 229.007 432.7 222.187 438.928C221.426 439.628 222.54 440.703 223.311 440.051C228.929 435.313 233.582 429.538 237.016 423.041C237.983 421.204 238.861 419.324 239.653 417.403C239.85 416.925 239.046 416.589 238.816 417.05V417.05Z" fill="#FF7900"/>
</g>
</g>
<path d="M226.082 385.142C217.999 396.894 208.673 407.741 198.266 417.495C195.361 420.188 192.299 422.709 189.452 425.463C189.067 425.836 189.574 426.531 190.036 426.219C192.957 424.168 195.721 421.901 198.304 419.438C200.952 417.011 203.523 414.504 206.018 411.916C210.982 406.748 215.609 401.267 219.869 395.505C222.278 392.263 224.479 388.884 226.582 385.436C226.778 385.115 226.292 384.843 226.082 385.144V385.142Z" fill="#FF7900"/>
<g style="mix-blend-mode:screen" opacity="0.302">
<g style="mix-blend-mode:screen" opacity="0.302">
<path d="M260.627 118.269C257.508 119.668 254.026 122.078 250.866 123.048C247.927 123.949 247.497 121.61 249.161 119.563C251.474 116.716 254.079 113.998 256.442 111.162C278.302 84.9229 298.905 57.7033 318.253 29.5029C319.445 33.2962 315.916 71.3853 313.101 86.2174C312.759 88.0134 266.673 115.558 260.627 118.269Z" fill="#FFB200"/>
</g>
</g>
<g style="mix-blend-mode:screen" opacity="0.134">
<g style="mix-blend-mode:screen" opacity="0.134">
<path d="M232.947 277.383C231.42 297.109 219.963 314.518 208.073 330.425C187.649 328.53 178.705 324.378 174.906 321.655L174.918 321.598C183.035 308.584 191.156 295.531 197.875 281.742C201.053 275.223 204.092 268.309 209.711 263.733C215.33 259.157 224.486 257.948 229.452 263.219C232.889 266.865 233.349 272.391 232.947 277.383Z" fill="#FFB200"/>
</g>
</g>
<path d="M310.417 322.019C317.592 313.666 324.821 305.362 331.942 296.963L353.313 271.757C357.345 267.003 361.417 262.268 365.334 257.415C365.671 256.998 365.102 256.398 364.733 256.814C361.079 260.931 357.568 265.18 354 269.372C350.433 273.564 346.891 277.789 343.339 282C336.233 290.425 329.138 298.857 322.053 307.295C318.046 312.081 314.106 316.917 310.111 321.712C309.934 321.924 310.235 322.226 310.419 322.021L310.417 322.019Z" fill="#2C2C2D"/>
<path d="M305.364 323.75C307.078 323.339 308.777 322.861 310.452 322.311L309.836 321.841L309.857 324.468C309.857 324.905 309.857 325.343 309.869 325.781C309.858 326.218 309.907 326.654 310.016 327.077C310.035 327.141 310.075 327.198 310.13 327.238C310.184 327.278 310.25 327.3 310.317 327.3C310.385 327.3 310.45 327.278 310.505 327.238C310.559 327.198 310.599 327.141 310.619 327.077C310.729 326.654 310.779 326.218 310.769 325.781C310.782 325.343 310.778 324.905 310.783 324.468L310.812 321.841C310.811 321.766 310.793 321.693 310.759 321.626C310.726 321.559 310.677 321.501 310.618 321.456C310.559 321.411 310.49 321.379 310.417 321.364C310.343 321.35 310.268 321.352 310.196 321.37C308.48 321.898 306.813 322.571 305.212 323.382C305.007 323.485 305.152 323.8 305.366 323.748L305.364 323.75Z" fill="#2C2C2D"/>
<path d="M334.262 375.969C329.913 387.232 324.964 398.274 319.561 409.068C314.184 419.808 308.309 430.277 301.936 440.477C295.572 450.662 288.743 460.537 281.448 470.101C274.128 479.696 266.365 488.931 258.157 497.805C249.996 506.627 241.448 515.055 232.513 523.091C231.399 524.098 230.28 525.097 229.154 526.089C228.949 526.272 229.249 526.568 229.455 526.391C238.602 518.477 247.346 510.11 255.655 501.321C263.977 492.546 271.854 483.348 279.286 473.813C286.661 464.355 293.581 454.567 300.047 444.449C306.534 434.292 312.532 423.844 318.041 413.105C323.547 402.41 328.504 391.442 332.895 380.244C333.44 378.845 333.99 377.449 334.527 376.048C334.592 375.878 334.322 375.805 334.256 375.973L334.262 375.969Z" fill="#FF7900"/>
<path d="M327.428 421.946C321.661 434.147 314.864 445.834 307.11 456.879C304.922 460.009 302.667 463.091 300.343 466.126C300.241 466.254 300.469 466.434 300.57 466.301C308.911 455.67 316.256 444.295 322.511 432.318C324.281 428.932 325.973 425.507 327.587 422.044C327.637 421.941 327.478 421.838 327.428 421.951V421.946Z" fill="#FF7900"/>
<path d="M125.826 511.457C116.791 519.113 107.901 526.938 99.1566 534.933C90.4576 542.91 81.9111 551.048 73.5169 559.347C68.7835 564.027 64.0974 568.756 59.517 573.587C59.3886 573.721 59.5899 573.924 59.7225 573.792C68.0591 565.38 76.4112 556.987 84.9677 548.796C93.4927 540.635 102.164 532.631 110.981 524.783C115.951 520.356 120.967 515.983 126.031 511.662C126.173 511.541 125.968 511.337 125.826 511.457V511.457Z" fill="#FF7900"/>
<path d="M95.7588 523.109C86.9885 530.466 78.6575 538.331 70.8085 546.664C68.5934 549.017 66.4254 551.412 64.3048 553.849C64.1763 553.996 64.3891 554.211 64.5206 554.065C72.1183 545.503 80.1742 537.359 88.653 529.669C91.0504 527.503 93.4821 525.377 95.9479 523.291C96.0743 523.188 95.8924 523.003 95.7661 523.109H95.7588Z" fill="#FF7900"/>
<path d="M91.7467 511.071C80.8456 520.029 70.1239 529.197 59.5817 538.577C49.0395 547.957 38.7011 557.552 28.5664 567.364C22.8772 572.858 17.2605 578.426 11.7164 584.067C11.6898 584.097 11.6756 584.136 11.6768 584.176C11.678 584.216 11.6944 584.254 11.7228 584.282C11.7511 584.311 11.7892 584.327 11.8293 584.328C11.8694 584.329 11.9084 584.315 11.9384 584.289C21.9031 574.306 32.044 564.502 42.3609 554.875C52.6777 545.249 63.1674 535.82 73.8302 526.59C79.8099 521.416 85.8393 516.3 91.9183 511.242C92.0375 511.139 91.8669 510.974 91.7478 511.071H91.7467Z" fill="#FF7900"/>
<path d="M192.095 223.238C193.088 222.703 193.949 221.954 194.615 221.044C195.28 220.134 195.734 219.086 195.943 217.978C196.516 215.584 196.173 213.252 193.805 212.122C193.034 211.697 192.159 211.495 191.279 211.54C189.747 211.716 188.639 213.065 187.848 214.388C187.162 215.506 186.631 216.712 186.272 217.973C185.999 218.983 185.586 220.657 186.142 221.636C187.233 223.555 190.226 224.092 192.095 223.238Z" fill="#F4BE90"/>
<path d="M127.089 124.902L127.323 125.358" stroke="#43496D" stroke-linecap="round" stroke-linejoin="round"/>
<path d="M129.631 129.779C135.793 141.379 142.574 152.64 149.947 163.511" stroke="#43496D" stroke-linecap="round" stroke-linejoin="round" stroke-dasharray="0.97 4.85"/>
<path d="M151.353 165.57L151.645 165.992" stroke="#43496D" stroke-linecap="round" stroke-linejoin="round"/>
<path d="M64.2884 147.208L64.7051 147.508" stroke="#43496D" stroke-linecap="round" stroke-linejoin="round"/>
<path d="M68.8503 150.425C89.8842 164.934 112.844 176.429 137.063 184.576" stroke="#43496D" stroke-linecap="round" stroke-linejoin="round" stroke-dasharray="0.99 4.93"/>
<path d="M139.469 185.372L139.958 185.532" stroke="#43496D" stroke-linecap="round" stroke-linejoin="round"/>
<path d="M38.7854 178.633C38.9445 178.69 39.1056 178.745 39.2668 178.801" stroke="#43496D" stroke-linecap="round" stroke-linejoin="round"/>
<path d="M44.1454 180.363C70.5773 188.254 112.129 192.264 138.905 193.144" stroke="#43496D" stroke-linecap="round" stroke-linejoin="round" stroke-dasharray="1 4.99"/>
<path d="M141.467 193.22L141.98 193.232" stroke="#43496D" stroke-linecap="round" stroke-linejoin="round"/>
<path d="M84.4734 209.332L84.9866 209.301" stroke="#43496D" stroke-linecap="round" stroke-linejoin="round"/>
<path d="M90.0329 208.997C105.342 208.052 120.691 206.822 135.53 203.11" stroke="#43496D" stroke-linecap="round" stroke-linejoin="round" stroke-dasharray="0.98 4.91"/>
<path d="M137.968 202.476C138.133 202.431 138.299 202.387 138.463 202.341" stroke="#43496D" stroke-linecap="round" stroke-linejoin="round"/>
<path d="M129.998 265.988C119.827 260.601 116.101 249.889 120.363 239.263C122.11 234.899 115.062 232.965 113.328 237.291C110.694 243.688 110.568 250.843 112.973 257.33C115.378 263.817 120.139 269.16 126.307 272.294C130.447 274.487 134.169 268.197 129.998 265.988V265.988Z" fill="#FFB200"/>
<path d="M137.06 255.558C133.537 253.764 129.995 248.127 131.783 244.142C133.688 239.9 127.406 236.154 125.477 240.45C122.087 248.012 125.945 258.084 133.368 261.863C137.538 263.987 141.266 257.699 137.06 255.558V255.558Z" fill="#FFB200"/>
<path d="M141.816 250.028C145.914 247.724 142.341 241.352 138.236 243.658C134.132 245.964 137.712 252.335 141.816 250.028Z" fill="#FFB200"/>
<defs>
<linearGradient id="paint0_linear_4:86" x1="164.429" y1="188.538" x2="174.766" y2="191.41" gradientUnits="userSpaceOnUse">
<stop stop-color="#FF9100" stop-opacity="0.97"/>
<stop offset="0.215" stop-color="#C2740F" stop-opacity="0.97"/>
<stop offset="0.53" stop-color="#6E4C23" stop-opacity="0.97"/>
<stop offset="0.754" stop-color="#393330" stop-opacity="0.97"/>
<stop offset="0.864" stop-color="#252935" stop-opacity="0.97"/>
</linearGradient>
</defs>
</svg>